<?xml version="1.0" encoding="utf-8"?>
<!-- Generator: Adobe Illustrator 24.2.0, SVG Export Plug-In . SVG Version: 6.00 Build 0)  -->
<svg version="1.1" id="Layer_1" xmlns="http://www.w3.org/2000/svg" xmlns:xlink="http://www.w3.org/1999/xlink" x="0px" y="0px"
	 viewBox="0 0 845 845" style="enable-background:new 0 0 845 845;" xml:space="preserve">
<style type="text/css">
	.st0{fill:#EE4D2D;}
	.st1{fill:#FFFFFF;}
</style>
<g>
	<g>
		<path class="st0" d="M-707.6,0.5h530c16.8,0.7,33.6,2.9,49.5,8.3c30,9.9,56.7,29.2,75.8,54.3c19.4,25.3,30.8,56.6,32.1,88.4
			c0.1,3,0.2,6,0.6,8.9v522.7c-0.7,12.8-1.2,25.7-4.2,38.2c-7.4,33.5-26.1,64.3-52.4,86.4c-23,19.5-51.6,32.2-81.5,36
			c-5.4,0.8-11,0.8-16.4,1.7h-531.6c-17-0.7-34.2-2.8-50.4-8.4c-43.9-14.3-80.5-48.9-97.3-91.9c-7-17.3-10.3-36-11.3-54.6V156.2
			c0.7-11.1,1.7-22.3,4.3-33.2c7.7-33.7,27-64.5,53.7-86.4c25.6-21.1,57.9-33.8,91-35.6C-712.8,0.9-710.2,0.8-707.6,0.5z M-331,80.2
			c-96.5,8.6-192.9,17.3-289.4,25.9c-8.2,0.6-16.2,3.8-22.6,8.9c-10.1,7.9-16.3,20.6-16.2,33.4c0,98.4,0,196.7,0,295.1
			c-1.3,19.6,12.7,38.9,31.9,43.3c6.2,1.7,12.6,1.2,18.9,1.2c116.3,0,232.6,0,348.9,0c11.4,0.2,22.8-4.6,30.7-13
			c7.6-7.9,11.9-18.8,11.9-29.7c0-79.7,0-159.3,0-239c0.1-17.3-11.3-34-27.7-39.8c-5.7-2.2-11.8-2.7-17.9-2.5
			c-110.7,0-221.3,0-332,0c-9.8,0.4-18.6-7.9-19-17.7c-0.8-5.1,3.8-10,8.9-9.6c100,0,200.1,0,300.1,0c4.5,0.3,8.7-3.9,8.4-8.4
			c0-10.6,0.1-21.3,0-31.9c-0.2-9.2-8.1-17.4-17.4-17.7C-319.4,78.9-325.2,79.8-331,80.2z M-656.8,537.3c-1.8,2.4-1.3,5.5-1.3,8.2
			c0.1,62.4,0,124.7,0,187.1c-0.1,3.6,3,6.8,6.6,7.1c4,0.2,8,0.1,12,0.1c3.9,0.1,7.5-3.3,7.3-7.2c0.1-22.1,0-44.2,0.1-66.3
			c15.5,0,31.1,0,46.6,0c21.7-0.3,43.1-11.3,55.3-29.3c9.5-13.6,13.5-31.1,10.6-47.5c-2.6-16-11.6-30.7-24.4-40.6
			c-12-9.5-27.3-14.7-42.5-14.7c-21,0-42,0-63.1,0C-652.3,534-655.2,534.9-656.8,537.3z M-479.4,612.6
			c-14.1,5.6-26.1,16.5-32.9,30.2c-6.2,12.2-8,26.5-5.2,39.8c3.1,15.2,12.3,29,24.9,37.9c14,10.1,32.2,13.9,49.1,11
			c12.9-2,24.7-8.3,34.5-16.7c0.1,3.6-0.1,7.2,0.1,10.8c0.1,3.7,3.6,6.7,7.3,6.5c5,0.1,10,0,15,0c0-41.5,0-83,0-124.5
			c-5,0-10.1-0.1-15.1,0c-3.4-0.1-6.7,2.5-7.1,6c-0.3,4-0.1,8-0.1,12c-6-5.1-12.6-9.6-20-12.6C-444.8,606.4-463.3,606-479.4,612.6z
			 M-364,614c19.5,31.5,39,63,58.5,94.5c-16.2,27.8-32.6,55.5-48.8,83.3c-1.9,2.7,0.4,6.9,3.7,6.6c7.2,0,14.4,0.1,21.6,0
			c36.7-61.4,73.5-122.6,110.3-184c1.9-2.4,0.4-6.6-2.8-6.8c-7.6-0.2-15.1-0.1-22.7,0c-15.1,25.2-30.2,50.3-45.4,75.5
			c-15.7-25.2-31.3-50.4-47-75.5c-8,0-16-0.1-24.1,0C-363.8,607.4-365.9,611.5-364,614z"/>
	</g>
	<path class="st0" d="M-451.1,214.2c26.5-1.6,53.9,4.8,76,20c1.7,1,2.3,3.3,1.1,5c-2.5,4.1-4.9,8.3-7.7,12.2
		c-0.8,1.5-2.7,1.1-3.7,0.1c-15.9-11.5-35.5-17.8-55.1-18.2c-9.5-0.7-19.2,1.9-26.9,7.5c-9,6.5-15.3,16.8-16.7,27.8
		c-0.4,11.6,6.9,21.9,16.1,28.3c14.5,10.7,32.6,14.1,48.9,21.1c15,6.3,30,13.8,41.4,25.6c7.8,8,13.1,18.6,14,29.8
		c0.7,5.3-0.2,10.6,0.1,16c-2.3,16.6-12.1,31.9-26.1,40.9c-11.6,7.3-25.2,10.8-38.8,11.7c-21.4,1-43.1-3.6-62.1-13.4
		c-7.6-4.1-14.7-9.2-21.4-14.8c-0.8-0.9-2.5-1.8-1.8-3.3c2.7-4.7,6.1-8.9,9-13.5c0.8-1.4,2.5-2.9,4.1-1.5c9.2,7.2,18.9,14,29.8,18.3
		c14.6,5.8,30.8,9.1,46.5,6.3c12.4-2,25.1-7.5,32.6-18c6.7-9,8-21.6,3.4-31.8c-5.3-12.1-16.1-20.7-27.6-26.6
		c-8-4.3-16.8-6.6-25.2-10c-11.5-4.4-22.9-9.4-34-14.8c-19.7-9.1-32.7-30.8-31.5-52.4c2.1-13.2,8.6-25.7,18.2-35.1
		C-478.4,221.7-465,215.5-451.1,214.2z"/>
	<path class="st0" d="M-632.1,559.8c13.9,0,27.8,0,41.7,0c4.7,0,9.4-0.2,14.1,0.8c13.4,2.3,25.4,11.6,30.7,24.1
		c4.9,11,4.2,24.3-1.8,34.9c-7,12.9-21.6,20.6-36,20.6c-16.2,0-32.4,0-48.6,0C-632.1,613.3-632.1,586.5-632.1,559.8z"/>
	<path class="st0" d="M-460.3,631.8c8.2-0.8,16.8,0.3,24.2,4.1c11.1,5.4,19.3,16.3,21.3,28.4c1.4,7-0.3,14.2-3.3,20.6
		c-5.7,11.8-17.4,20.3-30.3,22.3c-12.3,2.1-25.5-1.8-34.7-10.2c-9.3-8.5-15-21.9-12.1-34.5C-491.7,646.2-476.8,633.4-460.3,631.8z"
		/>
</g>
<g>
	<g>
		<path class="st1" d="M-331,80.2c5.8-0.4,11.6-1.3,17.5-1.3c9.2,0.3,17.2,8.5,17.4,17.7c0.1,10.6,0,21.3,0,31.9
			c0.3,4.5-3.9,8.7-8.4,8.4c-100,0-200.1,0-300.1,0c-5.1-0.4-9.7,4.6-8.9,9.6c0.3,9.7,9.2,18.1,19,17.7c110.7,0.1,221.3,0,332,0
			c6-0.2,12.2,0.3,17.9,2.5c16.3,5.8,27.8,22.5,27.7,39.8c0,79.7,0,159.3,0,239c0,10.9-4.2,21.8-11.9,29.7
			c-7.8,8.3-19.2,13.1-30.7,13c-116.3,0-232.6,0-348.9,0c-6.3-0.1-12.8,0.4-18.9-1.2c-19.2-4.4-33.2-23.8-31.9-43.3
			c0-98.4,0-196.7,0-295.1c-0.1-12.8,6.1-25.5,16.2-33.4c6.5-5.1,14.4-8.3,22.6-8.9C-523.9,97.5-427.5,88.9-331,80.2z M-451.1,214.2
			c-13.9,1.3-27.3,7.6-37.3,17.3c-9.6,9.4-16.1,21.8-18.2,35.1c-1.2,21.7,11.8,43.3,31.5,52.4c11.1,5.4,22.5,10.4,34,14.8
			c8.4,3.3,17.2,5.7,25.2,10c11.5,5.9,22.3,14.5,27.6,26.6c4.6,10.2,3.3,22.8-3.4,31.8c-7.6,10.5-20.2,16-32.6,18
			c-15.7,2.8-31.9-0.4-46.5-6.3c-10.9-4.3-20.6-11.1-29.8-18.3c-1.5-1.5-3.3,0.1-4.1,1.5c-2.9,4.5-6.3,8.8-9,13.5
			c-0.7,1.4,1,2.4,1.8,3.3c6.7,5.6,13.8,10.6,21.4,14.8c19.1,9.8,40.7,14.4,62.1,13.4c13.5-0.9,27.2-4.5,38.8-11.7
			c14-9.1,23.9-24.4,26.1-40.9c-0.3-5.3,0.6-10.6-0.1-16c-1-11.2-6.2-21.8-14-29.8c-11.4-11.8-26.4-19.3-41.4-25.6
			c-16.3-7-34.4-10.4-48.9-21.1c-9.2-6.4-16.5-16.7-16.1-28.3c1.4-11.1,7.7-21.3,16.7-27.8c7.7-5.6,17.4-8.2,26.9-7.5
			c19.6,0.4,39.2,6.7,55.1,18.2c1,1,2.9,1.4,3.7-0.1c2.8-3.9,5.2-8.2,7.7-12.2c1.2-1.6,0.6-4-1.1-5
			C-397.2,219-424.5,212.6-451.1,214.2z"/>
	</g>
	<g>
		<path class="st1" d="M-656.8,537.3c1.6-2.4,4.6-3.3,7.3-3.2c21,0,42.1,0,63.1,0c15.3,0,30.5,5.3,42.5,14.7
			c12.8,9.9,21.8,24.7,24.4,40.6c2.9,16.4-1.1,33.8-10.6,47.5c-12.3,18-33.6,29-55.3,29.3c-15.5,0-31.1,0-46.6,0
			c-0.1,22.1,0,44.2-0.1,66.3c0.1,3.9-3.5,7.3-7.3,7.2c-4,0.1-8,0.2-12-0.1c-3.6-0.2-6.7-3.5-6.6-7.1c0-62.4,0-124.7,0-187.1
			C-658.1,542.7-658.6,539.6-656.8,537.3z M-632.1,559.8c0,26.8,0,53.6,0,80.4c16.2,0,32.4,0,48.6,0c14.5,0,29-7.8,36-20.6
			c6-10.5,6.7-23.8,1.8-34.9c-5.3-12.5-17.4-21.8-30.7-24.1c-4.6-0.9-9.4-0.8-14.1-0.8C-604.3,559.8-618.2,559.7-632.1,559.8z"/>
	</g>
	<g>
		<path class="st1" d="M-479.4,612.6c16-6.5,34.5-6.2,50.5,0.4c7.4,3,14,7.5,20,12.6c0.1-4-0.2-8,0.1-12c0.4-3.4,3.7-6.1,7.1-6
			c5-0.1,10.1,0,15.1,0c0,41.5,0,83,0,124.5c-5,0-10,0-15,0c-3.7,0.2-7.2-2.8-7.3-6.5c-0.2-3.6,0-7.2-0.1-10.8
			c-9.8,8.5-21.6,14.7-34.5,16.7c-17,3-35.1-0.9-49.1-11c-12.6-8.9-21.8-22.7-24.9-37.9c-2.8-13.4-1-27.6,5.2-39.8
			C-505.5,629.1-493.5,618.2-479.4,612.6z M-460.3,631.8c-16.5,1.6-31.4,14.4-34.8,30.7c-3,12.6,2.8,26,12.1,34.5
			c9.2,8.5,22.4,12.3,34.7,10.2c12.9-2,24.6-10.5,30.3-22.3c3-6.4,4.7-13.6,3.3-20.6c-2-12.2-10.3-23-21.3-28.4
			C-443.5,632.1-452.1,631-460.3,631.8z"/>
	</g>
	<path class="st1" d="M-364,614c-1.9-2.6,0.2-6.6,3.4-6.5c8-0.1,16,0,24.1,0c15.7,25.2,31.3,50.4,47,75.5
		c15.2-25.1,30.3-50.3,45.4-75.5c7.6,0,15.2-0.2,22.7,0c3.2,0.2,4.8,4.3,2.8,6.8c-36.8,61.3-73.6,122.6-110.3,184
		c-7.2,0.1-14.4,0.1-21.6,0c-3.3,0.3-5.6-3.9-3.7-6.6c16.2-27.8,32.5-55.5,48.8-83.3C-325,677-344.5,645.6-364,614z"/>
</g>
<path class="st0" d="M845,160v522.7c-0.7,12.8-1.2,25.7-4.2,38.2c-7.3,33.5-26.1,64.3-52.4,86.4c-23,19.5-51.6,32.2-81.5,35.9
	c-5.5,0.8-11,0.8-16.4,1.7H158.9c-17-0.7-34.2-2.8-50.4-8.4c-43.9-14.3-80.5-48.9-97.3-91.9c-7-17.3-10.3-36-11.3-54.6V155.7
	c0.7-11.1,1.7-22.3,4.3-33.2C12,88.9,31.3,58,58,36.1c25.6-21.1,57.9-33.8,91-35.6c2.6-0.1,5.3-0.3,7.9-0.6h530
	c16.8,0.7,33.6,2.9,49.5,8.3c30,9.9,56.7,29.2,75.8,54.3c19.4,25.3,30.8,56.6,32.1,88.4C844.4,154.1,844.6,157,845,160z"/>
<g>
	<g>
		<path class="st1" d="M51.6,277.8c64-5.7,128-11.3,192-17c2.7-0.2,5.4-0.7,8,0.1c5,1.4,8.9,6.4,8.6,11.6c0,6.3,0,12.7,0,19
			c0.3,2.2-1.3,3.8-2.3,5.4c-5.1,0.6-10.1,0.4-15.2,0.4c-60.4,0-120.7,0-181.1,0c-3.8-0.5-7.1,3.5-6,7.2c0.9,5.7,6.3,10.4,12.1,10.2
			c72.3,0,144.7-0.1,217,0c14.1,0,26.5,12.7,26.3,26.8c0,51,0,101.9,0,152.9c0.1,13.9-12.3,26.4-26.3,26.4c-77.4,0-154.7,0-232.1,0
			c-14,0.2-26.6-12.3-26.6-26.4c-0.1-62.7,0-125.4-0.1-188.1c-0.1-5.5,1.1-11,4-15.7C34.4,283.2,42.8,278.3,51.6,277.8z
			 M134.2,358.9c-7,7.2-10.7,17.7-9.2,27.7c1,8.4,5.9,15.9,12.3,21.2c8.8,7.6,20.3,10.8,30.9,15c10.6,3.4,21.8,7.3,29.3,16
			c4.7,5.2,6.8,12.8,4.8,19.6c-1.9,7.6-8.3,13.3-15.4,16.2c-8.8,3.6-18.7,4.4-28,2.3c-11.1-2.2-21.2-7.6-30-14.6
			c-3.1-1.9-4.3,2.7-6,4.4c-0.9,2-4.5,4.6-2.2,6.8c12.1,10.7,27.9,16.7,43.9,18c13.3,1.3,27.6-1.3,38.4-9.6
			c13.7-10.5,18.7-31.5,9.9-46.6c-6.8-10.9-18.7-17.1-30.1-22c-12.1-5.4-26.1-7.5-36.3-16.5c-5.7-4.8-8.7-12.8-6.5-20
			c2.9-10.4,13.5-16.7,23.7-17.7c10.2-0.9,20.6,1.4,29.9,5.5c3.8,1.6,7.2,4.2,11,5.8c1.9-3.2,4.5-6.1,5.8-9.7c0.7-1.4-1-2.3-1.9-3
			c-12.4-8-27.3-12.3-42.1-11.9C154.7,345.7,142.5,350.2,134.2,358.9z"/>
	</g>
	<g>
		<path class="st1" d="M380.4,322.5c-0.3-4,3.4-7.5,7.3-7.4c21-0.1,42,0,63.1,0c15.5-0.1,31.1,5.3,43,15.3
			c12,9.8,20.6,23.9,23.3,39.3c2.8,14.8,0,30.6-7.5,43.6c-11.3,20.2-33.7,33.6-56.9,33.9c-15.8,0.1-31.5,0.1-47.3,0
			c0,21.8,0,43.6,0,65.4c0.3,3.5-2,7.4-5.7,8c-4,0.4-8.1,0.2-12.1,0.2c-3.9,0.1-7.4-3.3-7.3-7.2
			C380.3,449.8,380.3,386.2,380.4,322.5z M405.4,340.2c0.1,27,0.1,53.9,0,80.9c15.4,0,30.9,0,46.3,0c20.3,0.6,39.1-16.3,40.6-36.5
			c1.3-11.8-3.1-23.9-11.5-32.3c-7.6-7.8-18.3-12.3-29.1-12.1C436.3,340.2,420.8,340.2,405.4,340.2z"/>
	</g>
	<path class="st1" d="M672.9,393.8c1-2.3,3.7-2.1,5.8-2.1c7.3,0.1,14.5-0.1,21.8,0.1c15.5,25.4,31.2,50.6,46.8,76
		c15.4-25.1,30.3-50.6,45.4-76c7.7-0.1,15.3-0.3,23,0.1c2.9,0.3,4.3,4,2.7,6.4c-36.5,62.1-73.4,124-109.9,186.1
		c-7.7,0.2-15.3,0.3-23,0c-3.2-0.1-4.4-4.2-2.8-6.6c16.1-28,32.7-55.8,48.7-83.9c-19.3-31.2-38.2-62.6-57.4-93.8
		C672.9,398.2,671.4,395.8,672.9,393.8z"/>
	<g>
		<path class="st1" d="M568.8,393.9c20.8-4.2,43.3,2.3,58.7,16.9c0.2-4.1-0.2-8.3,0.4-12.4c0.4-2.9,2.9-5.4,5.8-5.6
			c5.4-0.3,10.8,0,16.2-0.1c-0.1,42.2-0.2,84.4,0.1,126.6c-5.1,0.9-10.2,0.4-15.3,0.4c-3.4,0-6.5-2.7-6.9-6.1
			c-0.4-4-0.1-7.9-0.2-11.9c-10.1,9-22.5,15.5-35.9,17.3c-17.4,2.7-35.9-1.9-49.8-12.7c-11.9-9-20.5-22.3-23.7-36.9
			c-3.1-13.6-1.5-28.2,4.7-40.7C531.5,410.8,549.2,397.6,568.8,393.9z M573.3,417.3c-13.2,2.5-25.1,11.9-30,24.6
			c-2.6,6.1-3,13-2.2,19.5c2.2,15,13.7,28.1,28.1,32.6c7.3,2.4,15.3,2.6,22.7,0.6c12.2-3.3,22.8-12.5,27.5-24.2
			c3.9-9.3,3.9-20.2-0.1-29.4C612.1,423.5,591.7,413.4,573.3,417.3z"/>
	</g>
</g>
</svg>
