<?xml version="1.0" encoding="utf-8"?>
<!-- Generator: Adobe Illustrator 24.2.0, SVG Export Plug-In . SVG Version: 6.00 Build 0)  -->
<svg version="1.1" id="Layer_1" xmlns="http://www.w3.org/2000/svg" xmlns:xlink="http://www.w3.org/1999/xlink" x="0px" y="0px"
	 viewBox="0 0 1600 432" enable-background="new 0 0 1600 432" xml:space="preserve">
<path fill="#005992" d="M-594.91-60.58c19.59-2.85,39.67-1.91,58.98,2.42c1.33,0.34,2.7,0.66,4.08,0.97
	c33.39,8.92,63.63,29.03,84.57,56.55c12.67,16.42,21.83,35.46,27.21,55.47c5.39,20.91,6.22,42.9,3.2,64.24
	c-0.56,1.97-0.75,4-0.88,6.03l-0.48,0.73c-2.01,12.44-6.63,24.28-11.67,35.77c-28.81-14.81-59.69-25.91-91.75-30.98
	c-1.63-0.21-3.2-0.6-4.72-1.13c0.1-26.95,0.13-53.9-0.02-80.85c-30.4,0.01-60.81,0.09-91.21-0.04c-1.11,3.75-0.25,7.61-0.2,11.43
	c-0.33,20.34-0.05,40.64-0.18,60.95c-0.65,2.91,0.59,6.57-0.85,9.06c-33.3,4.83-65.56,15.98-95.35,31.56
	c-9.33-20.55-15.01-42.99-14.58-65.65c-1-38.91,14.15-77.71,40.23-106.47C-664.4-37.39-630.73-55.62-594.91-60.58z"/>
<path fill="#005992" d="M-1984.66,131.65c16.58-0.09,33.17-0.13,49.75,0.02c0.35,1.18,0.68,2.37,1.12,3.53
	c11.44,28.78,22.6,57.66,33.99,86.45c4.07,11.11,8.89,21.94,12.82,33.09c16.26-41.04,32.1-82.26,48.55-123.23
	c13.6,0.19,27.19-0.01,40.79,0.1c-22.72,57.87-45.62,115.67-68.1,173.62c-3.89,9.17-11.66,17.04-21.44,19.62
	c-6.85,2.05-14.04,1.26-21.07,1.39C-1933.72,261.38-1959.18,196.51-1984.66,131.65z"/>
<g>
	<path fill="#005992" d="M-1314.33,134.97c-0.09-1.23,0.17-2.36,0.78-3.41c26.18,0.29,52.36,0.05,78.53,0.13
		c9.89,0.66,19.91,2.28,28.88,6.71c12.2,5.71,22.77,16.14,26.35,29.38c2.91,11.8,3.06,24.9-2.53,35.97
		c-3.82,7.84-10.71,13.64-18.07,18.04c10.26,3.33,20.02,9.53,25.5,19.06c3.31,5.15,4.85,11.13,6.07,17.05
		c0.66,6.7,0.76,13.47-0.01,20.16c-2.38,15.3-11.89,29.12-25.11,37.09c-13.36,8.49-29.53,10.82-45.06,11.12
		c-25.11-0.06-50.21,0.03-75.31-0.05C-1314.33,262.47-1314.28,198.72-1314.33,134.97z M-1268.64,207.81c9.55,0.01,19.1,0,28.65,0.01
		c4.57,0.12,9.08-1.37,12.85-3.91c6.8-4.64,10.5-13.76,7.7-21.7c-2.36-8.17-10.28-13.6-18.53-14.44c-10.19-0.23-20.39,0-30.59-0.11
		C-1268.75,181.04-1268.59,194.42-1268.64,207.81z M-1268.82,244.14c-0.04,11.28,0.08,22.57-0.06,33.85
		c0.1,4.08-0.01,8.15,0.17,12.23c10.57-0.02,21.15-0.03,31.72,0c4.81,0.07,9.84-0.14,14.26-2.24c7.7-3.46,13.12-11.48,13.48-19.92
		c0.91-12.06-9.51-23.72-21.68-23.89C-1243.56,244.1-1256.19,244.16-1268.82,244.14z"/>
</g>
<path fill="#005992" d="M-848.58,131.3c4.53-0.05,9.09-0.08,13.61,0.42l0.76,0.51c10.95,2.42,20.36,10.7,24.43,21.13
	c2.87,6.82,2.68,14.35,2.37,21.59c0.02,21.47-0.07,42.93,0.04,64.39c13.51-15.38,27.45-30.39,41-45.74c0.89-0.93,1.73-2.37,3.3-2.04
	c16.43,0.04,32.87-0.13,49.31,0.1c-18.92,19.84-37.78,39.76-56.73,59.56c10.36,14.29,21.35,28.13,31.94,42.25
	c8.28,10.62,16.19,21.53,24.63,32.02c-4.9,1.63-10.03,0.03-15.02,0.55c-3.05,0.39-6.09-0.09-9.13-0.15
	c-5.63,0.38-11.29,0.48-16.91,0.08c-4.04,0.49-8.1,0.13-12.12-0.23c-13.46-19.9-26.77-39.9-40.29-59.75
	c-0.12,20.07,0.11,40.14-0.12,60.21c-10.85-0.15-21.7-0.01-32.51-0.23c-2.84,0.27-5.7,0.3-8.53,0.08
	C-848.63,261.13-848.56,196.21-848.58,131.3z"/>
<path fill="#005992" d="M-1595.64,158.27c13.35,0,26.69-0.1,40.04,0.06c-0.05,11.07-0.02,22.14-0.02,33.22c7.2,0.01,14.39,0,21.59,0
	c-0.03,10.56,0.07,21.11-0.05,31.67c-7.19-0.02-14.37-0.02-21.55,0c0.03,16.61-0.03,33.23,0.03,49.84
	c0.33,10.67,10.96,19.24,21.49,17.57c0.19,11.67,0.03,23.34,0.08,35.01c-4.66,0-9.29,0.65-13.95,0.64
	c-10.06-0.22-20.33-2.84-28.44-8.98c-11.9-8.82-19.39-23.44-19.22-38.29c0.01-18.6,0-37.2,0-55.8c-6.42,0.03-12.85-0.09-19.28,0.08
	c-0.71-10.55-0.12-21.16-0.3-31.73c6.53-0.02,13.06,0.01,19.59-0.02C-1595.65,180.45-1595.63,169.36-1595.64,158.27z"/>
<g>
	<path fill="#005992" d="M-1704.96,188.59c17.05-3.25,35.44-0.19,50.16,9.16c16.09,10.09,27.91,26.91,31.84,45.5
		c1.85,9.17,2.11,18.76,0.36,27.95c-33.71,0.03-67.42-0.05-101.13,0.04c0.58,8.77,5.15,17.12,12.13,22.43
		c7.85,6.36,18.91,8.51,28.56,5.48c8.13-2.29,15.01-8.06,19.22-15.32c12.6-0.02,25.2-0.06,37.8,0.02
		c-4.7,13.8-14.41,25.61-26.06,34.2c-15.13,10.75-34.74,14.42-52.89,10.99c-15.96-2.82-30.52-11.85-40.77-24.32
		c-12.67-15.25-18.08-35.99-15.53-55.55C-1757.93,219.77-1734.23,193.76-1704.96,188.59z M-1722.97,244.12
		c19.33,0.07,38.65-0.03,57.97,0.05c1.68,0.09,3.34-0.19,4.92-0.77c-0.26-0.31-0.78-0.93-1.04-1.24
		c-3.09-13.75-16.68-24.58-30.85-23.96C-1706.76,217.68-1720.83,229.47-1722.97,244.12z"/>
</g>
<path fill="#005992" d="M-1393.2,188.4c15.54-3.51,33.11,0.85,44.31,12.44c9.43,9.01,14.87,22.09,14.55,35.14
	c-0.04,30.09,0.01,60.18-0.03,90.27c-13.39,0-26.77,0-40.16,0c-0.03-27.1-0.02-54.2,0-81.31c0.01-7.51-4.09-15-10.64-18.77
	c-9.44-5.5-23.2-3.02-29.26,6.35c-2.66,3.95-4.09,8.7-4.09,13.46c0,26.76,0.02,53.51-0.01,80.27c-13.38,0-26.76-0.01-40.14,0
	c0.03-44.87-0.13-89.74,0.08-134.61c12.39,0.04,24.78,0.03,37.17,0.01c0.15,4.88,0.03,9.78,0.13,14.67
	C-1414.14,197.57-1404.4,190.7-1393.2,188.4z"/>
<g>
	<path fill="#005992" d="M-1120.2,193.08c11.91-5.47,25.49-7.31,38.43-5.23c11.55,1.96,23.07,7.83,29.15,18.23
		c0.17-4.84,0.06-9.68,0.1-14.52c13.27-0.01,26.55-0.01,39.83,0c0.08,44.66-0.15,89.33,0.11,134c-6.01,1.64-12.32-0.21-18.45,0.6
		c-7.19-0.11-14.42,0.15-21.58-0.42c0.14-4.84,0.08-9.68,0.03-14.52c-4.54,9.01-13.74,14.59-23.18,17.26
		c-12.53,3.5-26.1,2.65-38.41-1.35c-25.67-8.32-42.92-34.76-43.59-61.23l-0.52-0.72c-0.47-12.27,0.72-24.84,5.39-36.29
		C-1146.71,213.6-1135.14,200.3-1120.2,193.08z M-1089.79,225.08c-6.88,0.73-13.4,3.99-18.07,9.09
		c-13.14,13.45-12.91,37.8,1.32,50.41c12.49,12.17,35.21,10.67,45.83-3.23c7.37-8.79,8.93-21.09,6.59-32.03
		c-2.06-8.39-7.61-15.78-14.93-20.31C-1075.26,225.48-1082.73,224.07-1089.79,225.08z"/>
</g>
<path fill="#005992" d="M-929.82,189.02c12.65-3.65,26.73-1.67,38.07,4.95c14.16,8.5,23.28,24.6,23.33,41.11
	c0.1,30.39,0.04,60.78,0.04,91.17c-13.4,0-26.79,0-40.18,0c-0.03-26.74,0-53.48-0.01-80.22c0.01-6.41-2.42-12.9-7.25-17.22
	c-9.26-8.79-26.53-6.9-33.11,4.23c-2.23,3.54-3.68,7.68-3.61,11.91c0.01,27.1,0.02,54.2,0,81.3c-13.38,0-26.76-0.01-40.14,0
	c0.02-44.87-0.11-89.74,0.07-134.61c12.39,0.04,24.79,0.02,37.18,0.01c0.14,4.84,0,9.69,0.14,14.53
	C-948.75,198.1-939.96,191.69-929.82,189.02z"/>
<path fill="#005992" d="M-1815.17,216.98c4.47-16.34,21.75-27.4,38.46-25.42c0.01,44.9,0.01,89.79,0,134.68
	c-13.22,0.01-26.44,0.01-39.66,0c-0.03-28.41,0.09-56.83-0.16-85.24C-1816.34,232.99-1817.26,224.83-1815.17,216.98z"/>
<path fill="#005992" d="M-1507.06,201c7.51-7.15,18.15-10.35,28.39-9.44c0.01,44.9,0.01,89.79,0,134.69c-13.22,0-26.44,0-39.66,0
	c-0.02-33.4,0.01-66.8-0.02-100.2C-1518.17,216.62-1514.11,207.31-1507.06,201z"/>
<path fill="#005992" d="M-527.99,401.48c3.91-0.45,7.86-0.22,11.8-0.2c-3.12,3.69-5.89,7.66-9.05,11.31
	c-3.01,0.88-6.25,0.21-9.33,0.26C-532.29,409.12-529.91,405.42-527.99,401.48z"/>
<path fill="#005992" d="M-1311.74,409.22c2.92-0.05,5.84-0.06,8.77,0.2c9.54,14.19,19.35,28.24,29.27,42.17
	c0.2-14.11,0.03-28.23,0.08-42.35c3.62-0.04,7.24-0.04,10.87-0.02c-0.01,21.33,0.02,42.66-0.01,63.99c-2.8,0-5.58,0-8.37,0.02
	c-9.4-13.58-19.03-27.01-28.18-40.76c-0.62-0.81-1.33-1.57-1.99-2.31c-0.22,14.39-0.21,28.8-0.01,43.2
	c-3.47-0.22-6.94-0.14-10.4-0.15C-1311.78,451.88-1311.72,430.55-1311.74,409.22z"/>
<path fill="#005992" d="M-1233.75,409.26c3.65-0.08,7.3-0.08,10.96,0c3.15,4.18,6.24,8.4,9.46,12.53c-3.25-0.11-6.49,0.21-9.72,0.15
	c-2.61-1.26-2.89-5.1-5.81-5.97c-1.15,1.84-2.21,3.77-3.61,5.44c-3.43,0.92-7.13,0.25-10.65,0.26
	C-1240.02,417.51-1236.82,413.43-1233.75,409.26z"/>
<path fill="#005992" d="M-971.39,409.24c4.08-0.05,8.17-0.05,12.26,0.02c-3.27,4.02-6.41,8.14-9.64,12.18
	c-3.34,0.04-6.66,0.03-9.98-0.09C-976.12,417.43-973.82,413.29-971.39,409.24z"/>
<path fill="#005992" d="M-862.54,413.7c1.56-2.09,3.56-4.56,6.51-4.1c4.81-0.09,7.71,6.26,4.73,9.94c-2.17,3.21-7.34,3.57-9.76,0.48
	C-862.88,418.39-862.37,415.85-862.54,413.7z"/>
<path fill="#005992" d="M-1014.01,409.75c3.81-1.12,8.17,2.28,7.8,6.28c0.22,4.67-5.92,7.96-9.67,5.09
	C-1020.44,418.51-1019.06,410.91-1014.01,409.75z"/>
<path fill="#005992" d="M-717.09,421.36c2.82-4.08,5.96-7.92,8.91-11.9c3.24,0.01,6.48,0.01,9.73-0.03c3.05,3.95,5.99,8,9.1,11.92
	c-3.24,0.14-6.49,0.12-9.72,0.09c-1.53-1.87-2.32-4.65-4.81-5.45c-1.14,1.86-2.36,3.68-3.62,5.46
	C-710.7,421.47-713.9,421.47-717.09,421.36z"/>
<path fill="#005992" d="M-548.84,409.61c3.32-0.22,6.66-0.17,10.01-0.13c3.02,3.97,6.11,7.89,9.06,11.91
	c-3.19,0.07-6.37,0.07-9.54,0.07c-1.47-2.02-2.94-4.03-4.38-6.05c-1.39,2.02-2.8,4.03-4.23,6.02c-3.23,0.03-6.45,0.04-9.66-0.03
	C-554.69,417.46-551.52,413.71-548.84,409.61z"/>
<path fill="#005992" d="M-918.61,417.59c3.33-1.2,6.77-2.07,10.15-3.12c0.06,4.3,0.02,8.59,0.08,12.89c3.69,0,7.4,0,11.11,0
	c0,3.19,0,6.39,0.02,9.59c-3.73,0.01-7.45,0.01-11.16,0.01c-0.04,8.1,0.03,16.19-0.03,24.29c2.34,3.8,7.36,3.05,11.18,2.92
	c0,3-0.01,6-0.02,9.01c-5.35,0.27-11.23,1.04-16.02-1.89c-3.85-2.3-5.29-7.05-5.26-11.29c-0.05-7.68,0.02-15.36-0.01-23.04
	c-2.78-0.01-5.54-0.01-8.3,0c-0.01-3.21-0.01-6.41,0.01-9.6c2.74,0,5.49,0,8.25,0.01C-918.56,424.11-918.55,420.85-918.61,417.59z"
	/>
<g>
	<path fill="#005992" d="M-1254.24,440.89c3.19-8.16,11.18-14.71,20.16-14.7c6.13-0.37,13.35,1.6,16.53,7.28
		c0.14-2,0.26-3.99,0.33-5.98c3.31-0.16,6.62-0.16,9.93-0.12c0,15.28,0.03,30.56-0.02,45.84c-3.35-0.15-6.84,0.55-10.05-0.64
		c0.02-1.81,0.04-3.62,0.05-5.42c-4.73,6.17-13.27,8.42-20.65,6.61c-6.49-1.38-11.92-6.11-15.09-11.81
		c-3.03-5.48-2.98-11.98-2.17-18.01C-1254.89,442.92-1254.56,441.9-1254.24,440.89z M-1240.29,438.67
		c-6.9,5.18-7.19,16.7-0.78,22.38c4.42,4.15,11.59,4.79,16.8,1.81c3.07-1.72,5.22-4.66,6.62-7.83c0.45-4.28,0.95-9.05-1.67-12.78
		C-1223.46,435.18-1234.01,433.58-1240.29,438.67z"/>
</g>
<path fill="#005992" d="M-1187.77,432.75c4.12-6.87,13.44-7.76,20.46-5.59c6.68,2.13,10.74,9.14,10.81,15.91
	c0.06,10.05,0.03,20.1,0,30.15c-3.36,0-6.71,0-10.06-0.01c-0.07-9.42,0-18.84-0.02-28.26c0.04-3.68-2.16-7.43-5.7-8.71
	c-3.87-1.39-8.54-0.86-11.76,1.78c-2.82,2.44-3.88,6.29-3.94,9.9c-0.11,8.43,0.04,16.87-0.07,25.3c-3.37,0-6.73,0-10.09-0.01
	c-0.03-15.28-0.02-30.56-0.01-45.84c3.35-0.01,6.71-0.01,10.07-0.01C-1187.99,429.15-1187.88,430.95-1187.77,432.75z"/>
<g>
	<path fill="#005992" d="M-1148.69,439.45c3.54-7.51,11.22-13.24,19.69-13.26c6.14-0.44,13.01,1.72,16.46,7.13
		c0.18-1.95,0.28-3.91,0.34-5.86c3.32-0.12,6.66-0.12,10-0.1c0.02,14.91,0,29.82,0.01,44.73c0.1,5.91-2.64,11.78-7.38,15.34
		c-7.83,5.93-18.72,6.26-27.73,3.09c-4.21-1.79-8.67-4.88-9.77-9.58c2.76-1.49,5.47-3.06,8.17-4.65c4.58,8.26,17.63,9.49,24.06,2.86
		c3.43-3.43,2.52-8.56,2.53-12.92c-7.41,9.54-22.72,9.17-31.08,1.11C-1150.89,460.44-1152.87,448.63-1148.69,439.45z
		 M-1131.67,436.44c-8.88,2.88-12.02,15.19-6.03,22.19c5.42,7.18,17.74,6.99,22.91-0.4c3.12-3.65,2.92-8.84,2.12-13.28
		C-1115.32,437.55-1124.35,433.46-1131.67,436.44z"/>
</g>
<g>
	<path fill="#005992" d="M-1068.75,433.22c7.99-9.11,24.54-9.96,32.15,0.06c0.04-1.96,0.07-3.93,0.12-5.88
		c3.31-0.05,6.62-0.05,9.95-0.03c-0.12,16.2,0.25,32.41-0.2,48.6c-1.42,6.96-6.81,12.76-13.56,14.87
		c-6.31,2.34-13.24,1.9-19.67,0.35c-5.04-1.68-9.71-5.12-11.8-10.12c2.91-1.51,5.73-3.2,8.67-4.69c4.4,7.92,16.36,9.11,23.11,3.65
		c4.11-3.53,3.65-9.38,3.29-14.26c-5.7,8.93-18.99,9.58-27.42,4.3c-4.82-2.91-8.26-7.7-10.15-12.93
		C-1076.6,448.91-1074.89,439.41-1068.75,433.22z M-1056.58,436.65c-6.98,2.84-10.42,11.44-7.56,18.37
		c2.89,8.48,14.47,11.46,21.56,6.48c6.5-4.07,8.09-13.64,3.82-19.83C-1042.53,436.02-1050.42,433.99-1056.58,436.65z"/>
</g>
<g>
	<path fill="#005992" d="M-985.37,427.16c7.91-2.36,17.9-0.91,22.88,6.3c0-2.02,0.03-4.05,0.08-6.06c3.34-0.05,6.69-0.05,10.05-0.03
		c-0.04,15.29,0.09,30.58-0.06,45.87c-3.33-0.03-6.65-0.03-9.96-0.03c-0.06-2.1-0.11-4.2-0.14-6.29
		c-3.91,5.47-10.94,7.93-17.48,7.38c-6.88-0.55-13.37-4.48-17.09-10.28c-4.42-6.37-4.96-14.78-2.81-22.07
		C-997.56,435.23-992.12,429.51-985.37,427.16z M-981.66,436.51c-8.62,2.77-11.6,13.88-7.37,21.35c3.53,5.96,11.53,8.47,17.87,5.77
		c7.37-2.77,10.65-12.04,7.68-19.12C-966.05,437.43-974.74,433.92-981.66,436.51z"/>
</g>
<path fill="#005992" d="M-880.34,434.27c2.54-5.33,8.41-7.91,14.1-7.94c0.01,3.64,0,7.29,0.01,10.94
	c-4.53-0.16-9.47,1.34-12.13,5.24c-2.16,3.39-2.07,7.56-2.03,11.43c0.02,6.42,0.05,12.85-0.01,19.28c-3.28,0-6.55,0-9.81-0.01
	c-0.02-15.28,0-30.56-0.01-45.83c3.27-0.03,6.55-0.03,9.83-0.01C-880.38,429.66-880.35,431.96-880.34,434.27z"/>
<path fill="#005992" d="M-817.27,432.61c10.43-10.33,30.87-8.2,37.54,5.39c-2.87,1.67-5.64,3.52-8.7,4.81
	c-3.93-7.2-14.35-9.09-20.62-3.89c-7.22,5.36-7.05,17.65,0.37,22.78c6.41,5.16,16.7,2.72,20.58-4.4c2.74,1.62,5.5,3.21,8.29,4.77
	c-1.92,5.14-6.79,8.68-11.75,10.64c-8.91,3.5-19.87,1.3-26.44-5.77C-826.94,457.82-826.74,441.31-817.27,432.61z"/>
<g>
	<path fill="#005992" d="M-712.1,427.59c3.83-1.54,8.08-1.58,12.15-1.27c8.5,0.8,15.97,6.87,19.16,14.71c0.3,0.99,0.63,1.98,1,2.97
		c0.62,4.04,0.58,8.16,0.07,12.22c-2.25,8.26-9.01,15.28-17.38,17.32c-7.43,2.01-15.81,0.25-21.74-4.66
		c-5.58-4.55-9.07-11.71-8.75-18.95C-727.91,440.17-721.19,430.89-712.1,427.59z M-717.32,446.83c-0.6,4.78,0.22,10.06,3.92,13.49
		c4.96,5.35,14.12,5.61,19.43,0.63c7.38-6.22,5.74-19.89-3.29-23.73C-705.15,433.1-715.34,438.36-717.32,446.83z"/>
</g>
<path fill="#005992" d="M-664.2,429.6c8.89-5.36,21.36-4.57,29.17,2.44c1.6,1.71,4.25,3.84,3.69,6.39
	c-2.57,1.68-5.29,3.14-8.05,4.47c-3.92-8.23-16.47-9.21-22.18-2.41c-6.16,6.18-4.43,17.72,3.16,21.97
	c6.44,4.15,15.81,1.55,19.37-5.21c2.86,1.67,5.73,3.34,8.65,4.94c-3.05,5.68-8.55,9.91-14.82,11.4c-9.46,2.51-20.41-1.22-25.9-9.43
	c-4.24-5.96-5.07-13.81-3.38-20.8C-673.08,437.62-669.03,432.85-664.2,429.6z"/>
<path fill="#005992" d="M-601.42,429.77c8.96-6.54,23.77-4.29,29.04,5.94c-2.95,1.42-5.55,3.8-8.9,4.22
	c-2.7-5.82-13.31-6.8-15.2,0.08c2.1,4.37,7.27,5.17,11.47,6.32c5.06,1.33,10.74,3.69,12.72,8.97c1.82,5.22,0.55,11.83-4.21,15.1
	c-8.97,6.4-23.34,5.14-30.08-3.98c-0.88-0.9-1.05-2.17-1.31-3.31c2.79-1.42,5.47-3.03,8.11-4.73c1.51,2.36,3.18,4.99,5.94,6.02
	c2.88,0.54,5.88,0.52,8.79,0.06c2.15-0.53,2.93-2.8,3.63-4.63c-1.83-3.69-5.94-5-9.7-5.61l-0.77-0.41
	c-5.02-1.03-10.39-3.16-13.11-7.78C-607.86,440.7-606.33,433.38-601.42,429.77z"/>
<g>
	<path fill="#005992" d="M-551.28,427.15c7.03-1.89,15.06-1.31,21.18,2.91c4.95,3.54,8.89,8.79,10.02,14.87
		c1.73,7.7-0.49,16.23-6.03,21.91c-5.88,6.39-15.39,8.96-23.73,6.73c-5.93-1.34-11.03-5.32-14.35-10.33
		c-4.01-6.11-4.73-14.04-2.54-20.94C-564.35,435.19-558.46,429.35-551.28,427.15z M-546.86,436.19
		c-6.31,1.31-11.27,7.34-10.96,13.83c-0.5,7.94,6.98,15.22,14.91,14.47c8.13-0.19,14.71-8.55,13.18-16.51
		C-530.69,440.07-539.11,434.14-546.86,436.19z"/>
</g>
<path fill="#005992" d="M-501.99,431.29c5.71-6.26,16.08-6.69,23.06-2.4c5.03,3.18,7.46,9.33,7.43,15.12
	c-0.02,9.73,0.02,19.47-0.03,29.21c-3.3,0-6.58,0-9.85,0c-0.05-8.74-0.01-17.47-0.01-26.2c0.04-3.33-0.71-6.96-3.29-9.25
	c-4.65-3.58-12.25-2.96-15.88,1.78c-2.13,2.62-2.2,6.17-2.64,9.36c-0.17,8.09,0.01,16.2-0.08,24.3c-3.37-0.19-6.91,0.63-10.08-0.72
	c0.24-15,0.06-30,0.09-45.01c3.33-0.14,6.66-0.15,10.01-0.11c-0.02,1.51-0.03,3.02-0.01,4.54
	C-502.95,431.76-502.31,431.44-501.99,431.29z"/>
<g>
	<path fill="#005992" d="M-460.07,433.94c7.55-9.43,23.94-10.93,32.05-1.47c0.31,0.07,0.92,0.21,1.23,0.28
		c-0.02-1.8-0.06-3.6-0.03-5.38c3.19-0.03,6.39-0.03,9.6,0.06c-0.35,16.56,0.5,33.16-0.47,49.7c-2.08,7.97-9.44,13.54-17.37,14.83
		c-10.03,1.8-22.92-0.64-27.46-10.91c2.94-1.42,5.71-3.15,8.57-4.73c4.12,7.3,14.47,8.83,21.45,4.99c5.21-3.01,6.4-10.06,4.97-15.45
		c-3.89,6.5-12.48,8.49-19.51,7.16c-8.75-1.41-15.82-8.52-18.26-16.87C-466.46,448.46-465.89,439.73-460.07,433.94z M-445.82,436.11
		c-7.97,2.06-11.92,11.47-9.08,18.91c2.17,5.44,7.93,9.4,13.87,8.78c7.73,0.42,14.67-7.05,13.81-14.74
		C-426.92,439.82-437.35,433.17-445.82,436.11z"/>
</g>
<path fill="#005992" d="M-1017.47,427.37c3.36-0.02,6.73-0.02,10.11,0.01c-0.03,15.28,0.05,30.56-0.04,45.84
	c-3.36-0.01-6.7-0.01-10.04,0C-1017.52,457.94-1017.46,442.65-1017.47,427.37z"/>
<path fill="#005992" d="M-775.65,427.37c3.36-0.02,6.73-0.02,10.11,0.04c0.01,9.44-0.09,18.87,0.03,28.3
	c-0.22,6.4,6.73,10.44,12.55,8.88c5.04-0.62,8.64-5.59,8.73-10.49c0.15-8.91,0-17.82,0.06-26.73c3.38-0.01,6.76-0.01,10.15,0
	c-0.04,15.28,0.05,30.57-0.05,45.85c-3.36,0-6.72,0-10.07-0.01c-0.05-1.74-0.08-3.47-0.1-5.2c-6.42,8.35-20.53,8.46-27.27,0.48
	c-2.97-3.42-4.22-8.03-4.13-12.49C-775.69,446.45-775.65,436.91-775.65,427.37z"/>
<path fill="#005992" d="M-861.36,427.37c3.38-0.02,6.76-0.02,10.16,0c-0.04,15.28,0.02,30.57-0.04,45.85c-3.37,0-6.74,0-10.1-0.01
	C-861.38,457.93-861.35,442.65-861.36,427.37z"/>
<path fill="#005992" d="M-862.47,486.99c-0.53-4.6,5.35-8.31,9.26-5.71c3.15,1.4,3.57,5.36,2.65,8.31c-1.13,2.05-3.33,3.02-5.4,3.8
	C-859.17,492.87-862.8,490.71-862.47,486.99z"/>
<path fill="#005992" d="M-706.58,481.45c4.28-3.18,10.74,1.45,9.41,6.53c-0.63,5.17-8.39,6.71-11.2,2.56
	C-710.54,487.69-709.65,483.26-706.58,481.45z"/>
<path fill="#D71049" d="M-635.06,154.89c45.61-10.55,93.74-9.24,138.82,3.25c19.04,5.28,37.36,12.87,54.98,21.75
	c-0.11,0.71-0.19,1.42-0.26,2.14c-10.27,14.57-22.54,27.82-36.91,38.42c-29.73,22.34-67.61,33.24-104.65,30.68
	c-35.51-2.57-70.16-17.43-96.04-41.98c-8.43-7.65-15.72-16.46-22.3-25.72c-0.87-1.02-1.23-2.28-1.53-3.54
	C-681.44,168.87-658.69,160.12-635.06,154.89z"/>
<g>
	<path fill="#005992" d="M-222.94,60.776c19.59-2.85,39.67-1.91,58.98,2.42c1.33,0.34,2.7,0.66,4.08,0.97
		c33.39,8.92,63.63,29.03,84.57,56.55c12.67,16.42,21.83,35.46,27.21,55.47c5.39,20.91,6.22,42.9,3.2,64.24
		c-0.56,1.97-0.75,4-0.88,6.03l-0.48,0.73c-2.01,12.44-6.63,24.28-11.67,35.77c-28.81-14.81-59.69-25.91-91.75-30.98
		c-1.63-0.21-3.2-0.6-4.72-1.13c0.1-26.95,0.13-53.9-0.02-80.85c-30.4,0.01-60.81,0.09-91.21-0.04c-1.11,3.75-0.25,7.61-0.2,11.43
		c-0.33,20.34-0.05,40.64-0.18,60.95c-0.65,2.91,0.59,6.57-0.85,9.06c-33.3,4.83-65.56,15.98-95.35,31.56
		c-9.33-20.55-15.01-42.99-14.58-65.65c-1-38.91,14.15-77.71,40.23-106.47C-292.43,83.966-258.76,65.736-222.94,60.776z"/>
	<path fill="#D71049" d="M-263.09,276.246c45.61-10.55,93.74-9.24,138.82,3.25c19.04,5.28,37.36,12.87,54.98,21.75
		c-0.11,0.71-0.19,1.42-0.26,2.14c-10.27,14.57-22.54,27.82-36.91,38.42c-29.73,22.34-67.61,33.24-104.65,30.68
		c-35.51-2.57-70.16-17.43-96.04-41.98c-8.43-7.65-15.72-16.46-22.3-25.72c-0.87-1.02-1.23-2.28-1.53-3.54
		C-309.47,290.226-286.72,281.476-263.09,276.246z"/>
</g>
<g>
	<path fill="#00426D" d="M-1301.3,430.16c0.66,0.74,1.37,1.5,1.99,2.31l-1.22,0.6c-0.22,12.64-0.04,25.29-0.07,37.93
		c-0.02,0.84-0.26,1.63-0.71,2.36C-1301.51,458.96-1301.52,444.55-1301.3,430.16z"/>
</g>
<g>
	<path fill="#005992" d="M1404.987,21.186c19.59-2.85,39.67-1.91,58.98,2.42c1.33,0.34,2.7,0.66,4.08,0.97
		c33.39,8.92,63.63,29.03,84.57,56.55c12.67,16.42,21.83,35.46,27.21,55.47c5.39,20.91,6.22,42.9,3.2,64.24
		c-0.56,1.97-0.75,4-0.88,6.03l-0.48,0.73c-2.01,12.44-6.63,24.28-11.67,35.77c-28.81-14.81-59.69-25.91-91.75-30.98
		c-1.63-0.21-3.2-0.6-4.72-1.13c0.1-26.95,0.13-53.9-0.02-80.85c-30.4,0.01-60.81,0.09-91.21-0.04c-1.11,3.75-0.25,7.61-0.2,11.43
		c-0.33,20.34-0.05,40.64-0.18,60.95c-0.65,2.91,0.59,6.57-0.85,9.06c-33.3,4.83-65.56,15.98-95.35,31.56
		c-9.33-20.55-15.01-42.99-14.58-65.65c-1-38.91,14.15-77.71,40.23-106.47C1335.497,44.376,1369.167,26.146,1404.987,21.186z"/>
	<path fill="#005992" d="M15.237,213.416c16.58-0.09,33.17-0.13,49.75,0.02c0.35,1.18,0.68,2.37,1.12,3.53
		c11.44,28.78,22.6,57.66,33.99,86.45c4.07,11.11,8.89,21.94,12.82,33.09c16.26-41.04,32.1-82.26,48.55-123.23
		c13.6,0.19,27.19-0.01,40.79,0.1c-22.72,57.87-45.62,115.67-68.1,173.62c-3.89,9.17-11.66,17.04-21.44,19.62
		c-6.85,2.05-14.04,1.26-21.07,1.39C66.177,343.146,40.717,278.276,15.237,213.416z"/>
	<g>
		<path fill="#005992" d="M685.567,216.736c-0.09-1.23,0.17-2.36,0.78-3.41c26.18,0.29,52.36,0.05,78.53,0.13
			c9.89,0.66,19.91,2.28,28.88,6.71c12.2,5.71,22.77,16.14,26.35,29.38c2.91,11.8,3.06,24.9-2.53,35.97
			c-3.82,7.84-10.71,13.64-18.07,18.04c10.26,3.33,20.02,9.53,25.5,19.06c3.31,5.15,4.85,11.13,6.07,17.05
			c0.66,6.7,0.76,13.47-0.01,20.16c-2.38,15.3-11.89,29.12-25.11,37.09c-13.36,8.49-29.53,10.82-45.06,11.12
			c-25.11-0.06-50.21,0.03-75.31-0.05C685.567,344.236,685.617,280.486,685.567,216.736z M731.257,289.576
			c9.55,0.01,19.1,0,28.65,0.01c4.57,0.12,9.08-1.37,12.85-3.91c6.8-4.64,10.5-13.76,7.7-21.7c-2.36-8.17-10.28-13.6-18.53-14.44
			c-10.19-0.23-20.39,0-30.59-0.11C731.147,262.806,731.307,276.186,731.257,289.576z M731.077,325.906
			c-0.04,11.28,0.08,22.57-0.06,33.85c0.1,4.08-0.01,8.15,0.17,12.23c10.57-0.02,21.15-0.03,31.72,0c4.81,0.07,9.84-0.14,14.26-2.24
			c7.7-3.46,13.12-11.48,13.48-19.92c0.91-12.06-9.51-23.72-21.68-23.89C756.337,325.866,743.707,325.926,731.077,325.906z"/>
	</g>
	<path fill="#005992" d="M1151.317,213.066c4.53-0.05,9.09-0.08,13.61,0.42l0.76,0.51c10.95,2.42,20.36,10.7,24.43,21.13
		c2.87,6.82,2.68,14.35,2.37,21.59c0.02,21.47-0.07,42.93,0.04,64.39c13.51-15.38,27.45-30.39,41-45.74
		c0.89-0.93,1.73-2.37,3.3-2.04c16.43,0.04,32.87-0.13,49.31,0.1c-18.92,19.84-37.78,39.76-56.73,59.56
		c10.36,14.29,21.35,28.13,31.94,42.25c8.28,10.62,16.19,21.53,24.63,32.02c-4.9,1.63-10.03,0.03-15.02,0.55
		c-3.05,0.39-6.09-0.09-9.13-0.15c-5.63,0.38-11.29,0.48-16.91,0.08c-4.04,0.49-8.1,0.13-12.12-0.23
		c-13.46-19.9-26.77-39.9-40.29-59.75c-0.12,20.07,0.11,40.14-0.12,60.21c-10.85-0.15-21.7-0.01-32.51-0.23
		c-2.84,0.27-5.7,0.3-8.53,0.08C1151.267,342.896,1151.337,277.976,1151.317,213.066z"/>
	<path fill="#005992" d="M404.257,240.036c13.35,0,26.69-0.1,40.04,0.06c-0.05,11.07-0.02,22.14-0.02,33.22
		c7.2,0.01,14.39,0,21.59,0c-0.03,10.56,0.07,21.11-0.05,31.67c-7.19-0.02-14.37-0.02-21.55,0c0.03,16.61-0.03,33.23,0.03,49.84
		c0.33,10.67,10.96,19.24,21.49,17.57c0.19,11.67,0.03,23.34,0.08,35.01c-4.66,0-9.29,0.65-13.95,0.64
		c-10.06-0.22-20.33-2.84-28.44-8.98c-11.9-8.82-19.39-23.44-19.22-38.29c0.01-18.6,0-37.2,0-55.8c-6.42,0.03-12.85-0.09-19.28,0.08
		c-0.71-10.55-0.12-21.16-0.3-31.73c6.53-0.02,13.06,0.01,19.59-0.02C404.247,262.216,404.267,251.126,404.257,240.036z"/>
	<g>
		<path fill="#005992" d="M294.937,270.356c17.05-3.25,35.44-0.19,50.16,9.16c16.09,10.09,27.91,26.91,31.84,45.5
			c1.85,9.17,2.11,18.76,0.36,27.95c-33.71,0.03-67.42-0.05-101.13,0.04c0.58,8.77,5.15,17.12,12.13,22.43
			c7.85,6.36,18.91,8.51,28.56,5.48c8.13-2.29,15.01-8.06,19.22-15.32c12.6-0.02,25.2-0.06,37.8,0.02
			c-4.7,13.8-14.41,25.61-26.06,34.2c-15.13,10.75-34.74,14.42-52.89,10.99c-15.96-2.82-30.52-11.85-40.77-24.32
			c-12.67-15.25-18.08-35.99-15.53-55.55C241.967,301.536,265.667,275.526,294.937,270.356z M276.927,325.886
			c19.33,0.07,38.65-0.03,57.97,0.05c1.68,0.09,3.34-0.19,4.92-0.77c-0.26-0.31-0.78-0.93-1.04-1.24
			c-3.09-13.75-16.68-24.58-30.85-23.96C293.137,299.446,279.067,311.236,276.927,325.886z"/>
	</g>
	<path fill="#005992" d="M606.697,270.166c15.54-3.51,33.11,0.85,44.31,12.44c9.43,9.01,14.87,22.09,14.55,35.14
		c-0.04,30.09,0.01,60.18-0.03,90.27c-13.39,0-26.77,0-40.16,0c-0.03-27.1-0.02-54.2,0-81.31c0.01-7.51-4.09-15-10.64-18.77
		c-9.44-5.5-23.2-3.02-29.26,6.35c-2.66,3.95-4.09,8.7-4.09,13.46c0,26.76,0.02,53.51-0.01,80.27c-13.38,0-26.76-0.01-40.14,0
		c0.03-44.87-0.13-89.74,0.08-134.61c12.39,0.04,24.78,0.03,37.17,0.01c0.15,4.88,0.03,9.78,0.13,14.67
		C585.757,279.336,595.497,272.466,606.697,270.166z"/>
	<g>
		<path fill="#005992" d="M879.697,274.846c11.91-5.47,25.49-7.31,38.43-5.23c11.55,1.96,23.07,7.83,29.15,18.23
			c0.17-4.84,0.06-9.68,0.1-14.52c13.27-0.01,26.55-0.01,39.83,0c0.08,44.66-0.15,89.33,0.11,134c-6.01,1.64-12.32-0.21-18.45,0.6
			c-7.19-0.11-14.42,0.15-21.58-0.42c0.14-4.84,0.08-9.68,0.03-14.52c-4.54,9.01-13.74,14.59-23.18,17.26
			c-12.53,3.5-26.1,2.65-38.41-1.35c-25.67-8.32-42.92-34.76-43.59-61.23l-0.52-0.72c-0.47-12.27,0.72-24.84,5.39-36.29
			C853.187,295.366,864.757,282.066,879.697,274.846z M910.107,306.846c-6.88,0.73-13.4,3.99-18.07,9.09
			c-13.14,13.45-12.91,37.8,1.32,50.41c12.49,12.17,35.21,10.67,45.83-3.23c7.37-8.79,8.93-21.09,6.59-32.03
			c-2.06-8.39-7.61-15.78-14.93-20.31C924.637,307.246,917.167,305.836,910.107,306.846z"/>
	</g>
	<path fill="#005992" d="M1070.077,270.786c12.65-3.65,26.73-1.67,38.07,4.95c14.16,8.5,23.28,24.6,23.33,41.11
		c0.1,30.39,0.04,60.78,0.04,91.17c-13.4,0-26.79,0-40.18,0c-0.03-26.74,0-53.48-0.01-80.22c0.01-6.41-2.42-12.9-7.25-17.22
		c-9.26-8.79-26.53-6.9-33.11,4.23c-2.23,3.54-3.68,7.68-3.61,11.91c0.01,27.1,0.02,54.2,0,81.3c-13.38,0-26.76-0.01-40.14,0
		c0.02-44.87-0.11-89.74,0.07-134.61c12.39,0.04,24.79,0.02,37.18,0.01c0.14,4.84,0,9.69,0.14,14.53
		C1051.147,279.866,1059.937,273.456,1070.077,270.786z"/>
	<path fill="#005992" d="M184.727,298.746c4.47-16.34,21.75-27.4,38.46-25.42c0.01,44.9,0.01,89.79,0,134.68
		c-13.22,0.01-26.44,0.01-39.66,0c-0.03-28.41,0.09-56.83-0.16-85.24C183.557,314.756,182.637,306.596,184.727,298.746z"/>
	<path fill="#005992" d="M492.837,282.766c7.51-7.15,18.15-10.35,28.39-9.44c0.01,44.9,0.01,89.79,0,134.69
		c-13.22,0-26.44,0-39.66,0c-0.02-33.4,0.01-66.8-0.02-100.2C481.727,298.386,485.787,289.076,492.837,282.766z"/>
	<path fill="#D71049" d="M1364.837,236.656c45.61-10.55,93.74-9.24,138.82,3.25c19.04,5.28,37.36,12.87,54.98,21.75
		c-0.11,0.71-0.19,1.42-0.26,2.14c-10.27,14.57-22.54,27.82-36.91,38.42c-29.73,22.34-67.61,33.24-104.65,30.68
		c-35.51-2.57-70.16-17.43-96.04-41.98c-8.43-7.65-15.72-16.46-22.3-25.72c-0.87-1.02-1.23-2.28-1.53-3.54
		C1318.457,250.636,1341.207,241.886,1364.837,236.656z"/>
</g>
</svg>
